PathFileType	4	(X/Y/Z)	C:/Users/opensim2020/Desktop/walking_exp_matlab/subject06_walking12_straigt_01.trc	
DataRate	CameraRate	NumFrames	NumMarkers	Units	OrigDataRate	OrigDataStartFrame	OrigNumFrames	
100.00	100.00	6	48	mm	100.00	942	196	
Frame#	Time	LFHD			RFHD			LBHD			RBHD			C7			T10			CLAV			STRN			RBAK			LSHO			LUPA			LELB			LFRM			LWRA			LWRB			LFIN			RSHO			RUPA			RELB			RFRM			RWRA			RWRB			RFIN			LASI			RASI			LPSI			RPSI			LTHI			LKNE			LTIB			LANK			LHEE			LTOE			RTHI			RKNE			RTIB			RANK			RHEE			RTOE			*39			*40			*41			*42			*43			*44			*45			*46			*47			
		X1	Y1	Z1	X2	Y2	Z2	X3	Y3	Z3	X4	Y4	Z4	X5	Y5	Z5	X6	Y6	Z6	X7	Y7	Z7	X8	Y8	Z8	X9	Y9	Z9	X10	Y10	Z10	X11	Y11	Z11	X12	Y12	Z12	X13	Y13	Z13	X14	Y14	Z14	X15	Y15	Z15	X16	Y16	Z16	X17	Y17	Z17	X18	Y18	Z18	X19	Y19	Z19	X20	Y20	Z20	X21	Y21	Z21	X22	Y22	Z22	X23	Y23	Z23	X24	Y24	Z24	X25	Y25	Z25	X26	Y26	Z26	X27	Y27	Z27	X28	Y28	Z28	X29	Y29	Z29	X30	Y30	Z30	X31	Y31	Z31	X32	Y32	Z32	X33	Y33	Z33	X34	Y34	Z34	X35	Y35	Z35	X36	Y36	Z36	X37	Y37	Z37	X38	Y38	Z38	X39	Y39	Z39	X40	Y40	Z40	X41	Y41	Z41	X42	Y42	Z42	X43	Y43	Z43	X44	Y44	Z44	X45	Y45	Z45	X46	Y46	Z46	X47	Y47	Z47	X48	Y48	Z48	

148	1.470	-1071.27991	632.60956	1637.73499	-941.88306	616.35425	1618.26001	-1091.02332	495.03488	1601.81543	-963.24951	480.54727	1587.13672	-1041.70618	469.66068	1433.27368	-1035.02563	433.80505	1102.11902	-1035.60657	579.17517	1352.46204	-1047.84290	617.07275	1177.37854	-972.47424	391.37360	1257.97070	-1198.03943	531.18542	1390.85693	-1274.90137	573.18976	1196.50000	-1290.31445	606.55487	1089.17664	-1297.83240	717.42377	987.41119	-1235.27063	829.44812	944.39325	-1278.98254	796.73627	899.85834	-1266.92285	881.58551	872.10254	-877.00714	521.64917	1382.08691	-797.00519	459.01398	1187.85901	-783.58771	456.77991	1065.94360	-762.80334	450.10321	946.27551	-783.49438	483.70993	796.34143	-750.03925	427.42194	809.82867	-742.90997	447.79337	727.61505	-1152.59119	602.83502	936.01776	-931.10583	618.88660	946.07745	-1111.43347	447.60278	971.10901	-943.10345	465.84439	972.19135	-1194.86401	474.41144	633.22290	-1170.60400	428.47122	474.40536	-1155.30408	287.29013	256.88852	-1110.66846	204.11794	106.32036	-1066.86218	159.36607	109.11502	-1103.29675	329.07779	33.72640	-862.00012	629.81293	622.29608	-892.05688	679.00214	507.86099	-896.52362	732.22870	255.54495	-942.79059	795.25171	84.63287	-990.61884	765.07825	69.19328	-946.52191	956.37396	33.46750	-1020.58258	531.82355	1685.27600																								 
149	1.480	-1069.48303	643.93988	1637.50256	-940.17590	627.63177	1617.66980	-1089.43042	506.54861	1601.01221	-961.69684	492.06815	1586.02466	-1040.21448	481.75351	1432.52551	-1033.87695	446.60373	1101.36292	-1034.42334	591.46008	1351.87244	-1047.03638	629.49811	1176.87366	-971.16370	403.85419	1257.09912	-1196.86279	543.35797	1390.63245	-1274.02197	584.31433	1195.91028	-1289.17078	616.90582	1088.44299	-1295.78552	727.33746	986.41510	-1233.08667	839.36328	943.61591	-1277.21008	807.10626	899.19867	-1264.53345	891.92371	871.50146	-875.70386	534.15143	1381.17419	-795.87598	471.89780	1186.74963	-782.70575	469.90259	1064.80322	-761.97546	463.26489	945.10504	-783.01776	497.02747	795.16614	-749.39825	441.02213	808.63416	-742.44513	461.33817	726.40265	-1152.31702	615.31134	935.31720	-930.49713	631.94537	945.63257	-1110.57678	460.55231	970.14032	-942.33600	478.75613	971.72870	-1194.33179	486.12186	632.29724	-1169.98279	440.24936	473.54700	-1155.13086	294.33771	259.06342	-1110.99561	207.30013	110.67462	-1067.32788	162.62137	114.77225	-1103.10657	329.74539	33.90528	-861.44220	643.20001	622.74945	-892.16461	691.62274	508.25958	-897.30640	738.81757	252.98593	-943.82745	796.43927	80.62924	-989.69659	765.76788	62.43417	-948.33875	958.95569	32.62771	-1018.85474	542.97461	1684.46802																								 
150	1.490	-1067.73608	655.31415	1637.67505	-938.46552	639.09570	1617.38037	-1087.83740	518.13019	1600.32739	-960.14240	503.69260	1584.99255	-1038.72559	493.75183	1432.01611	-1032.83875	459.35287	1100.82178	-1033.19299	603.76379	1351.50342	-1046.17358	642.05933	1176.49670	-969.78918	416.26447	1256.36560	-1195.60144	555.55060	1390.23206	-1272.77112	595.17102	1195.13147	-1287.83228	627.14673	1087.41943	-1294.63501	737.69702	985.49237	-1231.00122	849.13391	942.41138	-1275.44727	817.07819	898.11371	-1262.28076	901.78955	870.33215	-874.28668	546.75616	1380.34766	-794.70868	484.98331	1185.71619	-781.70020	483.15036	1063.71411	-761.18176	476.77026	943.95734	-782.48907	510.62338	794.14154	-748.86249	454.51154	807.39386	-741.93744	475.08261	725.28564	-1152.01721	628.14661	934.66669	-929.90302	645.20807	945.50928	-1109.84192	473.04535	969.68274	-941.59161	491.76724	971.54150	-1193.69397	498.25189	631.43719	-1169.25732	452.37729	472.77139	-1154.96948	301.81000	261.53912	-1111.43262	210.98965	115.34303	-1067.86597	166.52127	120.90046	-1102.97693	330.53659	34.12835	-860.87189	657.03296	623.46527	-892.08832	704.47455	509.32111	-898.28113	744.84192	250.95796	-945.58673	795.92651	76.69245	-990.75659	764.83215	56.97028	-950.12317	959.84973	32.04061	-1017.03632	554.04327	1683.89417																								 
151	1.500	-1065.96826	666.78070	1637.96985	-936.67963	650.55475	1617.30933	-1086.20166	529.83630	1599.96167	-958.49615	515.34534	1584.25439	-1037.23206	505.92880	1431.74695	-1031.98450	472.38995	1100.41199	-1031.89551	616.06122	1351.36780	-1045.26294	654.67511	1176.44287	-968.35095	428.76559	1255.75854	-1194.35864	567.75922	1390.00562	-1271.34351	606.01526	1194.30273	-1286.59253	637.40143	1086.48413	-1293.09753	747.42993	984.19995	-1229.09644	858.47485	940.70758	-1273.87134	826.69116	896.68701	-1260.27051	911.23578	868.65344	-872.81189	559.40399	1379.69421	-793.46857	498.27771	1184.74731	-780.64856	496.60043	1062.75720	-760.36969	490.45422	942.92059	-782.02820	524.42053	793.22382	-748.05701	468.60443	806.40564	-741.33478	489.32455	724.19580	-1151.68018	641.23737	934.20740	-929.20874	658.49402	945.77185	-1109.12207	486.04495	969.24738	-940.82727	504.92322	971.74396	-1192.83716	510.90479	630.73022	-1168.40576	465.09827	472.10361	-1154.65649	309.99561	264.23892	-1111.85107	215.36621	120.42066	-1068.42322	171.15179	127.50083	-1102.68872	331.41238	34.33031	-860.63330	671.21399	624.55963	-893.00891	717.44293	510.92661	-899.14276	751.11890	249.92252	-947.14331	795.13031	73.58498	-991.76898	763.37152	52.65667	-952.08276	959.53394	31.71497	-1015.16425	565.19324	1683.51819																								 
152	1.510	-1064.11011	678.32477	1638.48120	-934.94379	662.05090	1617.46899	-1084.45435	541.54370	1599.88940	-956.84198	527.04303	1583.87000	-1035.72070	518.01605	1431.84509	-1031.36951	485.48367	1100.25195	-1030.60632	628.40869	1351.60205	-1044.26392	667.33752	1176.71484	-966.84528	441.16315	1255.38977	-1193.15857	579.98840	1389.77393	-1270.31885	617.04315	1193.73071	-1285.32910	647.51172	1085.57446	-1291.64197	756.98566	982.74536	-1227.36804	867.63409	938.62756	-1272.36011	835.64093	894.86584	-1258.47327	920.06934	866.41925	-871.29346	571.99786	1379.26843	-792.36810	511.89127	1183.92065	-779.43524	510.03467	1062.02039	-759.56171	504.28397	942.05878	-781.52875	538.39063	792.43610	-747.44531	482.39828	805.41278	-740.66614	503.79739	723.39514	-1151.01611	654.11298	934.00378	-928.35748	671.70856	946.37848	-1108.61377	499.34558	968.91260	-940.17719	517.87988	972.62238	-1191.71631	524.05341	630.09656	-1167.37817	478.62930	471.44995	-1154.32458	318.79083	267.21289	-1112.22168	220.54382	125.92897	-1068.91943	176.68365	134.50781	-1102.39185	332.41464	34.45346	-861.45703	685.76190	626.03516	-894.93634	730.92920	513.05609	-900.07422	758.13184	249.87195	-947.46558	795.40350	71.68388	-991.34717	762.64709	49.86460	-953.31049	959.71283	31.65137	-1013.22363	576.45563	1683.46753																								 
153	1.520	-1062.23853	689.92755	1639.31775	-933.16040	673.66852	1617.90857	-1082.67834	553.19257	1600.18958	-955.05298	538.92786	1583.92798	-1034.13049	530.21393	1432.30066	-1030.81470	498.66638	1100.31238	-1029.32813	640.72198	1352.13110	-1043.21045	680.12402	1177.33557	-965.45496	453.68430	1255.27539	-1191.94946	592.19080	1389.83801	-1268.83887	627.95605	1193.23193	-1284.12317	657.61725	1084.87830	-1290.22766	766.26447	981.14862	-1225.70752	876.25897	936.00531	-1270.88757	844.11957	892.64447	-1256.92468	928.33746	863.66364	-869.83398	584.64227	1379.16650	-790.90125	525.63202	1183.41382	-778.40125	523.87622	1061.42822	-758.71985	518.34698	941.46234	-781.08234	552.62006	791.97211	-746.77136	496.72421	804.78485	-740.06964	518.24530	722.99786	-1150.05701	667.37683	934.04926	-927.37463	684.92841	947.58350	-1108.17529	512.60028	968.96448	-939.67944	530.74878	974.00818	-1190.46680	537.80621	629.58557	-1166.26563	493.12943	470.75702	-1153.80603	328.46417	270.57516	-1112.46533	226.65280	131.91754	-1069.12317	183.32944	142.18353	-1102.21606	333.57019	34.52361	-863.76587	699.71356	627.83258	-897.77777	744.25226	514.89868	-900.69330	766.07117	250.57610	-947.68103	796.55048	70.48109	-991.55017	762.82770	47.92594	-953.76044	960.31531	31.61374	-1011.31067	587.88336	1683.76099																								 
